<svg width="502" height="506" viewBox="0 0 502 506" fill="none" xmlns="http://www.w3.org/2000/svg">
<path fill-rule="evenodd" clip-rule="evenodd" d="M229.602 185.938C262.689 176.088 297.665 225.423 280.244 229.167C269.991 231.377 278.271 213.971 256.82 201.236C250.884 197.694 242.941 195.906 236.061 195.991C222.637 196.142 220.765 188.569 229.602 185.938ZM256.787 277.423C258.018 276.242 265.151 273.763 267.563 272.447C289.435 260.556 301.038 231.934 290.852 208.539C285.135 195.383 271.543 183.509 258.051 178.753C249.265 175.649 239.771 174.148 230.462 174.654C212.772 175.633 216.178 165.901 225.605 164.349C256.551 159.272 293.601 180.44 303.078 210.783C317.008 255.395 272.774 287.83 259.519 286.632C253.65 286.092 253.431 280.611 256.787 277.423ZM179.87 111.236C182.72 107.964 185.823 107.07 190.343 107.086C198.539 107.12 194.39 109.819 200.225 104.641C205.453 100.019 213.43 97.1014 220.327 99.6483L220.226 105.771C215.689 108.976 212.873 107.441 208.775 110.881C205.369 113.715 204.576 117.038 201.793 119.585C194.087 121.575 195.621 118.708 189.888 117.409C183.209 115.908 181.068 119.602 179.87 111.236ZM227.528 476.871C93.1056 462.906 2.41153 335.883 31.5186 203.817C60.2885 73.3363 195.301 -5.19492 322.59 39.4511C447.602 83.3045 510.42 225.676 453.959 347.183C439.642 377.965 426.539 392.504 404.127 416.86C399.961 421.397 400.231 422.021 395.762 417.501L373.013 395.422C348.172 369.785 319.571 332.695 328.543 294.29C330.92 284.119 334.698 285.3 343.231 280.054C369.134 264.149 393.401 223.146 387.465 205.672C378.375 203.26 379.117 206.887 378.409 213.718C374.8 247.805 334.023 285.198 323.315 277.845C322.37 270.137 331.511 267.354 337.126 262.698C350.196 251.853 370.719 224.344 368.51 210.631L335.288 216.754C334.58 202.653 330.212 192.584 322.91 180.237L332.893 174.3C338.762 182.211 343.417 191.015 345.002 201.54L386.841 189.801C390.686 182.329 380.163 156.759 375.542 148.713L368.206 153.031C372.17 163.978 376.807 170.961 378.207 183.425L352.388 189.75C349.37 179.36 344.007 169.223 336.266 160.975L309.773 178.365C313.264 186.849 319.419 192.331 322.893 203.226C327.244 216.872 324.849 224.394 326.974 236.049L337.632 236.302C341.562 230.803 344.614 222.117 352.978 226.739C354.344 232.473 348.155 238.815 344.968 243.825C339.673 252.106 335.204 246.54 325.541 247.856C320.971 257.756 301.678 301.846 287.361 293.497C283.077 287.29 294.022 280.324 299.267 273.948C327.683 239.507 320.195 187.287 274.173 163.708C266.315 159.677 258.321 156.54 249.586 154.836C241.306 153.217 221.153 154.313 217.797 153.031C206.246 135.524 254.881 144.514 262.014 146.942C285.523 154.954 289.874 164.028 301.307 170.269L336.57 145.812C346.688 151.986 353.467 165.378 359.066 176.594L366.149 174.519C364.631 160.942 348.56 138.661 337.683 132.437C331.005 134.276 312.471 155.275 300.953 158.445C297.817 158.058 251.39 110.274 189.112 146.099C182.08 150.147 176.582 143.653 188.201 136.131C205.301 125.083 214.205 126.669 232.216 122.081C232.992 113.681 229.956 91.1644 233.97 85.7502C243.329 79.4251 274.578 87.7573 285.287 92.3619L290.633 83.6418C264.359 72.1219 233.683 80.0492 207.527 83.8274C206.397 90.3042 212.013 84.2659 208.151 91.2993C206.515 94.2678 204.256 94.875 201.473 93.6438C193.463 90.1524 198.218 86.7115 187.172 92.5811C146.041 114.474 121.707 168.346 130.156 208.32C133.933 226.148 131.437 224.799 121.133 238.731C115.164 246.81 107.356 255.142 101.841 263.053C90.2219 279.717 114.32 276.023 119.042 283.242C122.584 290.697 117.491 295.251 117.592 302.605L128.891 309.065C124.793 313.838 122.179 311.392 119.582 319.117C124.675 328.512 130.527 321.394 129.65 341.415C129.194 351.636 128.857 360.474 140.291 363.612C156.177 367.963 188.707 358.889 199.635 363.308C202.738 365.602 207.089 386.011 210.209 391.88C214.728 400.398 220.074 407.499 225.858 415.291C242.857 438.162 233.093 453.14 227.528 476.871ZM0.505912 229.842L-0.843201 271.941C2.04053 280.425 2.96804 305.169 12.2432 333.083C41.5527 421.262 118.452 488.695 211.035 502.762C264.342 510.874 290.245 502.812 339.622 488.864L372.541 473.076C534.62 377.611 547.554 150.4 392.103 44.6798C231.39 -64.6162 19.6127 37.8994 0.505912 229.842Z" fill="#F8CA73"/>
<path fill-rule="evenodd" clip-rule="evenodd" d="M298.643 133.972C290.7 131.661 264.915 110.628 242.941 114.913L242.672 121.592C250.26 124.763 263.094 125.134 274.241 130.194C285.422 135.271 290.312 139.96 299.722 145.829C309.486 142.068 323.821 122.25 332.101 115.284C356.688 127.04 358.004 148.916 368.797 138.037C363.822 127.849 339.049 102.904 327.564 100.964L298.643 133.972Z" fill="#F8CA73"/>
<path fill-rule="evenodd" clip-rule="evenodd" d="M290.751 104.59C282.605 103.73 269.317 92.9859 244.948 94.8413L244.122 101.605C249.653 104.675 262.807 104.489 270.548 107.103C278.777 109.869 284.73 115.081 291.914 118.033L313.635 91.1475L301.948 87.1163L290.751 104.59Z" fill="#F8CA73"/>
</svg>
