<svg width="298" height="300" viewBox="0 0 298 300" fill="none" xmlns="http://www.w3.org/2000/svg">
<path fill-rule="evenodd" clip-rule="evenodd" d="M136.15 110.24C155.77 104.4 176.51 133.65 166.18 135.87C160.1 137.18 165.01 126.86 152.29 119.31C148.77 117.21 144.06 116.15 139.98 116.2C132.02 116.29 130.91 111.8 136.15 110.24ZM152.27 164.48C153 163.78 157.23 162.31 158.66 161.53C171.63 154.48 178.51 137.51 172.47 123.64C169.08 115.84 161.02 108.8 153.02 105.98C147.81 104.14 142.18 103.25 136.66 103.55C126.17 104.13 128.19 98.36 133.78 97.44C152.13 94.43 174.1 106.98 179.72 124.97C187.98 151.42 161.75 170.65 153.89 169.94C150.41 169.62 150.28 166.37 152.27 164.48ZM106.66 65.95C108.35 64.01 110.19 63.48 112.87 63.49C117.73 63.51 115.27 65.11 118.73 62.04C121.83 59.3 126.56 57.57 130.65 59.08L130.59 62.71C127.9 64.61 126.23 63.7 123.8 65.74C121.78 67.42 121.31 69.39 119.66 70.9C115.09 72.08 116 70.38 112.6 69.61C108.64 68.72 107.37 70.91 106.66 65.95ZM134.92 282.73C55.21 274.45 1.43 199.14 18.69 120.84C35.75 43.48 115.81 -3.08001 191.29 23.39C265.42 49.39 302.67 133.8 269.19 205.84C260.7 224.09 252.93 232.71 239.64 247.15C237.17 249.84 237.33 250.21 234.68 247.53L221.19 234.44C206.46 219.24 189.5 197.25 194.82 174.48C196.23 168.45 198.47 169.15 203.53 166.04C218.89 156.61 233.28 132.3 229.76 121.94C224.37 120.51 224.81 122.66 224.39 126.71C222.25 146.92 198.07 169.09 191.72 164.73C191.16 160.16 196.58 158.51 199.91 155.75C207.66 149.32 219.83 133.01 218.52 124.88L198.82 128.51C198.4 120.15 195.81 114.18 191.48 106.86L197.4 103.34C200.88 108.03 203.64 113.25 204.58 119.49L229.39 112.53C231.67 108.1 225.43 92.94 222.69 88.17L218.34 90.73C220.69 97.22 223.44 101.36 224.27 108.75L208.96 112.5C207.17 106.34 203.99 100.33 199.4 95.44L183.69 105.75C185.76 110.78 189.41 114.03 191.47 120.49C194.05 128.58 192.63 133.04 193.89 139.95L200.21 140.1C202.54 136.84 204.35 131.69 209.31 134.43C210.12 137.83 206.45 141.59 204.56 144.56C201.42 149.47 198.77 146.17 193.04 146.95C190.33 152.82 178.89 178.96 170.4 174.01C167.86 170.33 174.35 166.2 177.46 162.42C194.31 142 189.87 111.04 162.58 97.06C157.92 94.67 153.18 92.81 148 91.8C143.09 90.84 131.14 91.49 129.15 90.73C122.3 80.35 151.14 85.68 155.37 87.12C169.31 91.87 171.89 97.25 178.67 100.95L199.58 86.45C205.58 90.11 209.6 98.05 212.92 104.7L217.12 103.47C216.22 95.42 206.69 82.21 200.24 78.52C196.28 79.61 185.29 92.06 178.46 93.94C176.6 93.71 149.07 65.38 112.14 86.62C107.97 89.02 104.71 85.17 111.6 80.71C121.74 74.16 127.02 75.1 137.7 72.38C138.16 67.4 136.36 54.05 138.74 50.84C144.29 47.09 162.82 52.03 169.17 54.76L172.34 49.59C156.76 42.76 138.57 47.46 123.06 49.7C122.39 53.54 125.72 49.96 123.43 54.13C122.46 55.89 121.12 56.25 119.47 55.52C114.72 53.45 117.54 51.41 110.99 54.89C86.6 67.87 72.17 99.81 77.18 123.51C79.42 134.08 77.94 133.28 71.83 141.54C68.29 146.33 63.66 151.27 60.39 155.96C53.5 165.84 67.79 163.65 70.59 167.93C72.69 172.35 69.67 175.05 69.73 179.41L76.43 183.24C74 186.07 72.45 184.62 70.91 189.2C73.93 194.77 77.4 190.55 76.88 202.42C76.61 208.48 76.41 213.72 83.19 215.58C92.61 218.16 111.9 212.78 118.38 215.4C120.22 216.76 122.8 228.86 124.65 232.34C127.33 237.39 130.5 241.6 133.93 246.22C144.01 259.78 138.22 268.66 134.92 282.73ZM0.3 136.27L-0.5 161.23C1.21 166.26 1.76 180.93 7.26 197.48C24.64 249.76 70.24 289.74 125.14 298.08C156.75 302.89 172.11 298.11 201.39 289.84L220.91 280.48C317.02 223.88 324.69 89.17 232.51 26.49C137.21 -38.31 11.63 22.47 0.3 136.27Z" fill="#F8CA73"/>
<path fill-rule="evenodd" clip-rule="evenodd" d="M177.09 79.43C172.38 78.06 157.09 65.59 144.06 68.13L143.9 72.09C148.4 73.97 156.01 74.19 162.62 77.19C169.25 80.2 172.15 82.98 177.73 86.46C183.52 84.23 192.02 72.48 196.93 68.35C211.51 75.32 212.29 88.29 218.69 81.84C215.74 75.8 201.05 61.01 194.24 59.86L177.09 79.43Z" fill="#F8CA73"/>
<path fill-rule="evenodd" clip-rule="evenodd" d="M172.41 62.01C167.58 61.5 159.7 55.13 145.25 56.23L144.76 60.24C148.04 62.06 155.84 61.95 160.43 63.5C165.31 65.14 168.84 68.23 173.1 69.98L185.98 54.04L179.05 51.65L172.41 62.01Z" fill="#F8CA73"/>
</svg>
